<?xml version="1.0" encoding="UTF-8"?>
<!-- Generated by Pixelmator Pro 2.4.3 -->
<svg width="512" height="512" viewBox="0 0 512 512" xmlns="http://www.w3.org/2000/svg" xmlns:xlink="http://www.w3.org/1999/xlink">
    <path id="Path" fill="#140d86" stroke="none" opacity="0.703655" d="M 412.437347 312.895996 C 379.692657 312.922729 349.061157 329.072266 330.538666 356.074646 L 191.679993 293.375977 C 201.542648 269.560181 201.580994 242.809357 191.786667 218.965332 L 330.453339 155.946655 C 358.397614 196.36203 411.676117 210.30011 455.831909 188.746674 C 499.987762 167.193268 521.774109 116.61441 507.101044 69.721039 C 492.428009 22.827667 445.69754 -6.312134 397.131683 1.147217 C 348.565796 8.606598 312.734344 50.427338 312.810669 99.562653 C 312.901093 105.190399 313.472046 110.80011 314.517334 116.330658 L 167.104004 183.317352 C 127.624504 146.329102 65.836235 147.62558 27.943026 186.237274 C -9.950188 224.848999 -10.085976 286.650696 27.637201 325.428528 C 65.360374 364.206421 127.142342 365.774353 166.783997 328.960022 L 314.581329 395.690674 C 313.554749 401.216309 312.991028 406.817963 312.895996 412.437347 C 312.88736 452.710571 337.141876 489.022614 374.347809 504.438477 C 411.553802 519.85437 454.38266 511.337555 482.860107 482.860107 C 511.337555 454.38266 519.85437 411.553802 504.438477 374.347839 C 489.022614 337.141846 452.710571 312.88739 412.437347 312.895996 Z M 412.437347 42.666656 C 435.451538 42.658051 456.204468 56.514832 465.017578 77.774719 C 473.830719 99.034607 468.968231 123.510101 452.697754 139.786652 C 436.427277 156.063232 411.953644 160.934937 390.69043 152.129761 C 369.427246 143.324585 355.562653 122.576904 355.562653 99.562653 C 355.586182 68.157959 381.032623 42.701965 412.437347 42.666656 Z M 99.56266 312.895996 C 76.548439 312.904602 55.795551 299.047852 46.982407 277.787964 C 38.169266 256.528076 43.03178 232.052582 59.302242 215.776001 C 75.572701 199.49942 100.046364 194.627747 121.309563 203.432922 C 142.572754 212.238068 156.437332 232.985779 156.437332 256 C 156.402084 287.399841 130.962509 312.848999 99.56266 312.895996 Z M 412.437347 469.333344 C 381.014526 469.333344 355.541351 443.860107 355.541351 412.437347 C 355.541351 381.014526 381.014526 355.541321 412.437347 355.541321 C 443.860107 355.541321 469.333344 381.014526 469.333344 412.437347 C 469.309814 443.850372 443.850372 469.309814 412.437347 469.333344 Z"/>
</svg>
